<?xml version="1.0" standalone="no"?>
<!DOCTYPE svg PUBLIC "-//W3C//DTD SVG 20010904//EN"
 "http://www.w3.org/TR/2001/REC-SVG-20010904/DTD/svg10.dtd">
<svg version="1.0" xmlns="http://www.w3.org/2000/svg"
 width="300.000000pt" height="181.000000pt" viewBox="0 0 300.000000 181.000000"
 preserveAspectRatio="xMidYMid meet">
<metadata>
Created by potrace 1.10, written by Peter Selinger 2001-2011
</metadata>
<g transform="translate(0.000000,181.000000) scale(0.100000,-0.100000)"
fill="#000000" stroke="none">
<path d="M1519 1593 c-2 -6 -10 -13 -18 -15 -41 -9 -103 -100 -91 -133 4 -11
5 -24 2 -29 -3 -5 0 -6 7 -2 6 4 9 11 6 16 -8 13 6 40 20 40 7 0 15 7 19 15 3
8 9 14 13 13 8 -3 25 9 56 38 8 8 23 7 54 -2 24 -7 43 -9 43 -5 0 10 -30 25
-43 23 -4 -1 -12 9 -19 23 -10 23 -28 26 -28 4 0 -6 4 -8 9 -5 5 3 11 0 14 -7
4 -10 -2 -13 -19 -9 -17 3 -24 0 -24 -12 0 -9 -8 -16 -21 -16 -11 0 -18 -4
-15 -9 4 -5 -3 -7 -15 -4 -16 4 -17 8 -7 14 7 5 21 9 31 9 9 0 17 6 17 14 0 8
5 16 12 18 6 2 9 11 6 19 -3 9 -6 10 -9 2z"/>
<path d="M1590 1593 c0 -20 62 -75 73 -64 11 11 0 34 -13 26 -4 -3 -11 2 -14
11 -4 9 -9 14 -13 11 -3 -4 -12 1 -19 11 -7 9 -14 12 -14 5z"/>
<path d="M2011 1563 c-1 -8 -14 -13 -31 -13 -16 0 -30 -5 -30 -11 0 -5 -4 -7
-10 -4 -5 3 -10 2 -10 -4 0 -5 -9 -13 -20 -16 -11 -3 -20 -15 -20 -25 0 -10
-4 -22 -10 -25 -6 -4 -7 1 -3 12 4 13 3 15 -5 8 -6 -5 -14 -23 -18 -40 l-7
-30 40 38 c22 20 42 34 46 31 7 -7 11 10 8 31 -1 6 4 3 11 -5 7 -8 25 -14 39
-12 15 2 33 -4 42 -12 9 -9 20 -16 25 -16 10 0 26 -29 24 -42 -1 -5 3 -8 8 -8
23 0 -3 62 -40 95 -12 11 -26 29 -31 40 -4 11 -8 14 -8 8z"/>
<path d="M2192 1519 c-9 -18 -32 -54 -50 -82 -18 -27 -31 -52 -29 -54 9 -8 87
88 87 107 0 12 5 30 10 41 6 10 8 19 5 19 -3 0 -14 -14 -23 -31z"/>
<path d="M1669 1514 c-8 -10 -21 -13 -37 -9 -15 4 -21 2 -17 -5 3 -5 11 -10
17 -10 5 0 24 -10 41 -22 29 -20 31 -20 15 -2 -24 28 -23 38 2 17 11 -10 20
-24 20 -33 0 -13 2 -13 10 0 5 9 5 19 0 26 -6 6 -7 14 -3 17 3 4 -1 7 -11 7
-9 0 -15 4 -11 9 10 17 -12 21 -26 5z"/>
<path d="M2220 1483 c1 -36 1 -37 13 -15 7 12 16 20 19 16 4 -3 4 3 1 15 -9
37 -33 25 -33 -16z"/>
<path d="M1376 1468 c-13 -24 -32 -63 -42 -88 -10 -25 -28 -59 -41 -77 l-24
-31 -51 26 c-37 19 -71 28 -120 30 -84 5 -94 17 -73 87 7 27 10 44 5 39 -5 -5
-15 -30 -22 -57 -18 -68 3 -87 106 -97 73 -7 86 -12 132 -52 20 -18 20 -21 7
-76 -17 -67 -37 -88 -96 -97 -48 -7 -117 -34 -117 -46 0 -17 23 -21 32 -6 5 9
28 21 51 27 23 6 50 14 61 17 11 3 16 1 12 -5 -3 -6 -2 -13 4 -17 5 -3 10 -2
10 3 0 5 12 22 27 38 28 30 46 94 44 157 -1 25 3 37 11 37 21 0 46 35 58 80 6
22 15 40 19 40 8 0 15 19 27 65 1 6 5 18 9 28 13 32 -4 17 -29 -25z"/>
<path d="M1058 1465 c-7 -7 10 -97 20 -107 5 -5 19 0 32 10 l22 18 -21 42
c-19 38 -38 51 -53 37z"/>
<path d="M1710 1416 c0 -2 7 -20 15 -40 15 -36 36 -42 30 -8 -2 9 -4 19 -4 22
-1 6 -41 32 -41 26z"/>
<path d="M1945 1404 c-16 -8 -22 -12 -12 -9 10 3 35 5 55 5 28 0 33 3 22 10
-20 13 -29 12 -65 -6z"/>
<path d="M2196 1393 c-19 -12 -40 -23 -45 -23 -9 0 -31 -31 -31 -44 0 -3 16 5
35 18 19 13 54 27 77 30 63 10 73 20 33 32 -30 10 -39 8 -69 -13z"/>
<path d="M1665 1335 c26 -43 26 -46 10 -77 l-16 -33 30 30 c28 29 51 77 34 74
-21 -4 -33 2 -33 16 0 8 -5 15 -11 15 -5 0 -7 5 -4 10 3 6 -3 10 -15 10 -20 0
-20 -1 5 -45z"/>
<path d="M2028 1375 c-1 -1 -19 -5 -39 -8 -45 -6 -75 -21 -83 -44 -6 -15 -8
-15 -16 -3 -8 12 -10 10 -10 -7 0 -16 8 -24 28 -29 15 -4 37 -13 50 -21 39
-24 122 -5 122 28 0 11 7 22 15 25 8 4 12 10 9 16 -3 5 -11 4 -20 -3 -18 -15
-20 11 -1 30 10 10 8 11 -7 5 -12 -4 -17 -4 -13 2 5 9 -26 17 -35 9z m25 -47
c22 -26 22 -45 -3 -58 -16 -9 -20 -8 -20 5 0 8 -8 15 -17 15 -15 0 -16 2 -3
10 13 9 13 11 0 20 -23 15 -39 12 -52 -10 -12 -19 -48 -28 -48 -12 0 13 43 50
65 55 30 7 58 -2 78 -25z"/>
<path d="M1548 1340 c-15 -4 -28 -6 -31 -4 -2 2 -18 -11 -36 -30 -32 -33 -32
-33 -13 -56 16 -20 28 -23 74 -22 30 1 65 6 79 11 l24 10 -22 7 c-13 3 -23 11
-23 16 0 5 5 6 11 2 7 -4 10 -1 7 7 -6 18 -47 24 -62 9 -8 -8 -7 -13 4 -20 13
-8 12 -10 -2 -10 -10 0 -18 -7 -18 -16 0 -17 -35 -11 -58 11 -12 10 -10 16 10
35 50 48 116 54 154 13 31 -33 41 -26 11 9 -24 29 -68 40 -109 28z"/>
<path d="M2079 1255 c-8 -9 -32 -16 -52 -17 -37 -1 -42 -18 -6 -18 25 0 79 27
79 40 0 13 -3 13 -21 -5z"/>
<path d="M1717 1241 l-27 -18 21 -26 c11 -15 26 -27 32 -27 7 1 6 6 -4 13 -16
12 -35 52 -21 43 5 -3 16 4 25 15 20 23 11 23 -26 0z"/>
<path d="M1430 1233 c0 -27 102 -50 155 -35 25 7 21 9 -31 9 -36 1 -74 8 -92
17 -18 9 -32 13 -32 9z"/>
<path d="M1617 1153 c-15 -24 -27 -47 -27 -53 0 -6 -7 -25 -16 -41 -23 -45
-10 -46 17 -3 12 21 25 32 27 26 2 -7 8 -12 13 -12 6 0 7 6 1 16 -10 18 -4 55
11 65 5 4 7 15 5 25 -3 15 -9 10 -31 -23z"/>
<path d="M2040 1144 c0 -21 10 -40 31 -60 17 -16 44 -51 60 -79 16 -27 29 -43
30 -35 4 49 -28 114 -63 129 -16 7 -27 18 -25 25 2 6 -4 20 -14 30 -19 19 -19
19 -19 -10z"/>
<path d="M794 1148 c-4 -7 -4 -10 1 -6 5 5 14 -1 22 -12 8 -11 20 -17 28 -14
9 4 15 0 15 -10 0 -9 5 -16 10 -16 16 0 12 14 -15 43 -28 29 -50 34 -61 15z"/>
<path d="M1976 1138 c-10 -6 -49 -11 -87 -12 -37 0 -65 -4 -62 -8 2 -5 13 -8
24 -8 35 0 20 -20 -33 -44 -50 -23 -124 -43 -140 -38 -5 1 -8 -3 -8 -9 0 -6 6
-9 13 -6 8 3 45 8 83 12 49 5 82 15 115 35 50 30 117 53 131 44 4 -3 8 6 8 20
0 28 -13 32 -44 14z"/>
<path d="M770 1104 c-6 -14 -10 -30 -10 -35 0 -5 -7 -9 -16 -9 -11 0 -14 -6
-9 -21 4 -12 2 -24 -4 -29 -8 -4 -5 -14 9 -32 11 -15 20 -31 20 -37 0 -14 17
-14 25 0 5 7 31 8 79 3 39 -4 88 -7 109 -7 20 1 37 -3 37 -8 0 -5 -17 -17 -37
-28 l-38 -20 51 1 51 2 -9 41 c-12 51 -22 61 -50 48 -16 -7 -40 -3 -101 18
-43 15 -79 29 -80 31 -1 1 -7 13 -14 24 -6 12 -9 32 -6 44 6 22 7 22 20 5 12
-18 13 -17 13 8 0 35 -27 36 -40 1z"/>
<path d="M1098 1113 c24 -10 1 -22 -24 -13 -33 13 -34 13 -27 -6 4 -11 0 -15
-13 -14 -30 3 -58 0 -71 -8 -16 -10 -28 -62 -14 -62 6 0 11 9 11 20 0 11 5 20
11 20 5 0 7 -5 3 -12 -5 -8 -2 -9 9 -5 10 3 17 2 17 -3 0 -6 5 -10 10 -10 6 0
10 6 10 13 0 22 58 49 103 49 9 -1 17 3 17 8 0 5 11 7 24 4 15 -2 29 3 37 14
13 15 12 16 -3 3 -15 -11 -21 -11 -34 0 -13 10 -17 10 -24 -2 -7 -11 -12 -11
-22 -1 -6 6 -17 12 -22 11 -6 0 -5 -3 2 -6z"/>
<path d="M1681 1107 c-18 -23 12 -41 55 -34 42 7 52 14 38 26 -18 17 -81 22
-93 8z"/>
<path d="M447 1064 c-50 -33 -41 -42 13 -14 42 21 78 23 125 6 17 -7 17 -5 -4
13 -33 29 -87 27 -134 -5z"/>
<path d="M655 1061 c-37 -19 -46 -32 -36 -46 5 -5 12 -32 17 -60 l8 -50 6 40
c3 24 1 50 -6 65 -12 24 -11 26 34 41 35 12 41 17 27 20 -11 3 -33 -2 -50 -10z"/>
<path d="M373 1005 c-18 -8 -33 -20 -33 -27 -1 -16 -35 -58 -47 -58 -18 0 -52
-46 -68 -89 -8 -24 -32 -62 -53 -85 -56 -61 -79 -103 -102 -191 -24 -89 -42
-135 -51 -135 -4 0 -9 -7 -12 -14 -4 -10 -1 -13 8 -9 13 4 12 -1 -1 -32 -24
-58 -10 -51 17 8 13 28 27 54 32 55 4 2 7 10 7 17 0 8 4 25 10 39 l9 26 27
-25 c41 -38 180 -69 260 -58 51 7 52 5 23 -73 -24 -65 -21 -109 11 -154 l22
-30 41 32 c78 59 117 101 117 126 0 18 -4 23 -16 18 -9 -3 -17 -6 -19 -6 -2 0
-1 -9 2 -19 4 -14 -10 -34 -48 -70 -29 -28 -57 -51 -62 -51 -5 0 -6 12 -2 27
6 27 6 27 -8 8 -14 -19 -16 -18 -26 21 -9 32 -8 52 5 94 9 30 17 62 20 73 2
10 14 38 28 61 28 48 43 135 29 161 -8 13 -12 2 -17 -46 -4 -35 -14 -83 -23
-107 l-16 -43 -86 2 c-115 3 -192 19 -227 49 -28 24 -29 28 -22 80 5 40 12 59
27 69 12 7 21 18 21 23 0 5 9 19 21 31 39 41 77 102 90 145 13 46 39 76 46 55
6 -18 23 -16 23 1 0 8 8 21 18 28 19 15 66 78 60 83 -1 2 -18 -3 -35 -10z"/>
<path d="M1525 955 c-20 -32 -37 -73 -40 -98 l-5 -42 13 45 c18 61 35 90 51
90 8 0 13 8 11 18 -1 9 2 23 8 30 5 6 7 12 4 12 -4 0 -22 -25 -42 -55z"/>
<path d="M1175 940 c-11 -5 -31 -19 -45 -30 l-25 -21 42 20 c23 12 53 21 67
21 28 0 96 -54 96 -76 0 -8 4 -14 9 -14 4 0 7 -12 5 -27 -2 -18 -1 -20 3 -8 3
11 10 23 17 27 8 6 8 8 -1 8 -7 0 -21 17 -32 38 -11 21 -26 44 -34 50 -19 16
-77 23 -102 12z"/>
<path d="M662 924 c4 -21 44 -30 68 -15 19 13 10 21 -35 28 -33 5 -37 4 -33
-13z"/>
<path d="M2121 901 c-1 -20 -3 -21 -16 -11 -11 9 -36 11 -93 5 -42 -4 -126
-10 -186 -14 -93 -5 -110 -9 -112 -23 -2 -14 3 -17 22 -12 14 4 24 2 24 -4 0
-16 -40 -26 -53 -13 -15 15 -27 14 -27 -4 0 -7 -8 -19 -17 -24 -10 -6 -13 -11
-7 -11 6 0 14 3 18 8 4 4 68 7 141 7 94 0 138 4 146 13 18 17 79 16 79 -1 0
-35 -67 -67 -155 -74 -94 -7 -95 -7 -95 -15 0 -14 -27 -9 -40 7 -7 8 -17 12
-22 9 -5 -3 -17 1 -26 9 -9 8 -30 15 -45 15 -16 0 -36 7 -45 16 -16 15 -15 17
6 22 12 4 22 10 22 15 0 5 -12 4 -27 -2 -16 -5 -35 -12 -43 -15 -12 -4 -9 -9
10 -24 14 -11 21 -20 15 -20 -5 -1 31 -16 80 -34 84 -31 95 -33 170 -26 45 4
85 3 92 -2 8 -6 15 -2 23 12 8 15 18 20 31 17 23 -6 75 52 84 94 8 33 29 53
50 45 17 -6 18 8 5 39 -8 19 -9 18 -9 -4z m-74 -42 c-28 -17 -66 -18 -78 -3
-9 12 -2 14 42 14 43 -1 50 -3 36 -11z m-92 -19 c0 -24 -79 -21 -83 3 -3 16 2
18 40 15 30 -2 43 -7 43 -18z m-95 -5 c0 -11 -12 -15 -45 -15 -33 0 -45 4 -45
15 0 11 12 15 45 15 33 0 45 -4 45 -15z"/>
<path d="M610 875 c-18 -19 -35 -25 -69 -26 l-46 -2 40 -6 40 -6 -26 -18 c-15
-10 -29 -26 -32 -37 -3 -11 23 9 59 45 57 57 72 75 61 75 -2 0 -14 -11 -27
-25z"/>
<path d="M747 893 c-4 -3 -7 -19 -7 -35 0 -32 22 -37 55 -14 34 24 80 28 119
12 37 -16 51 -5 17 14 -31 16 -93 12 -134 -9 l-38 -19 3 21 c2 17 12 23 43 28
l40 6 -46 2 c-25 0 -49 -2 -52 -6z"/>
<path d="M637 852 c-16 -18 -13 -67 4 -57 4 3 6 12 3 20 -3 7 -1 23 6 34 13
26 8 27 -13 3z"/>
<path d="M1010 862 c0 -5 9 -17 20 -27 19 -17 21 -17 38 -2 25 23 74 21 106
-4 14 -11 26 -16 26 -10 0 5 -12 19 -26 30 -27 21 -85 21 -110 1 -8 -8 -16 -6
-27 5 -17 17 -27 19 -27 7z"/>
<path d="M1200 750 c0 -23 -9 -40 -31 -61 -17 -16 -25 -29 -18 -29 11 0 11 -3
-1 -10 -8 -5 -10 -10 -4 -10 6 0 17 7 24 15 7 8 20 15 29 15 14 0 14 2 1 10
-11 7 -11 10 -2 10 7 0 11 4 7 9 -3 5 -1 12 4 15 11 7 11 55 0 62 -5 3 -9 -9
-9 -26z"/>
<path d="M956 746 c-9 -14 -34 -30 -56 -37 -28 -8 -37 -15 -28 -20 16 -10 47
-2 66 17 7 8 18 12 23 9 9 -6 25 42 17 51 -3 2 -13 -7 -22 -20z"/>
<path d="M2806 652 c2 -62 9 -136 15 -163 6 -28 9 -64 7 -80 -3 -20 0 -29 9
-29 7 0 13 -10 13 -22 0 -19 -2 -20 -10 -8 -9 15 -8 -20 5 -157 3 -29 1 -53
-3 -53 -14 0 -42 69 -43 108 -1 20 -5 48 -9 62 -6 19 -8 12 -8 -30 0 -30 -2
-64 -4 -75 -2 -13 2 -19 10 -17 8 1 11 -2 7 -7 -3 -6 -3 -21 0 -34 5 -18 13
-24 36 -25 26 -1 29 3 29 31 1 36 12 23 24 -27 7 -27 5 -28 -19 -24 -28 6 -44
-7 -20 -16 8 -3 18 -23 21 -46 4 -26 12 -40 21 -40 10 0 13 6 8 18 -8 20 -8
22 -5 42 1 9 7 3 14 -13 11 -25 12 -21 12 46 -1 41 -4 73 -7 71 -12 -7 -28 23
-28 52 0 16 -2 45 -5 64 -21 149 -28 191 -41 235 -8 28 -19 95 -24 150 l-10
100 5 -113z m59 -372 c-3 -5 -1 -18 4 -28 12 -23 3 -71 -10 -50 -10 16 -12 72
-2 81 10 10 15 8 8 -3z"/>
<path d="M2187 743 c-2 -4 -7 -26 -10 -48 -3 -22 -3 -32 0 -22 12 43 48 -8 58
-83 6 -40 5 -43 -8 -27 -14 17 -15 16 -20 -4 -7 -25 -27 -16 -27 12 0 10 -5
19 -11 19 -5 0 -7 -5 -3 -12 4 -7 3 -8 -4 -4 -6 4 -9 13 -5 21 3 8 1 15 -3 15
-5 0 -19 -22 -31 -48 -29 -61 -57 -109 -78 -132 -15 -16 -14 -18 5 -23 13 -3
18 -10 14 -21 -3 -9 -1 -16 6 -16 6 0 9 -4 5 -9 -3 -5 -1 -12 4 -15 5 -3 11 3
14 14 3 11 1 18 -4 14 -5 -3 -9 12 -8 33 l1 38 13 -30 c9 -19 14 -24 15 -12 0
9 4 17 8 17 13 0 35 -47 28 -59 -4 -6 -4 -11 -1 -11 8 0 30 22 36 35 2 6 13 9
24 8 20 -3 20 -2 1 12 -17 13 -21 13 -32 -3 -12 -15 -15 -15 -24 -2 -5 8 -10
24 -10 35 0 17 2 17 10 5 5 -8 10 -10 10 -5 0 6 -5 16 -11 22 -8 8 -7 13 1 18
7 4 16 1 21 -6 6 -9 8 -3 8 21 -1 19 -3 28 -5 20 -3 -9 -13 -21 -23 -27 -15
-10 -22 -9 -31 2 -15 17 -4 36 18 33 10 -2 18 5 20 17 2 16 1 17 -7 5 -7 -9
-11 -10 -11 -3 0 22 21 25 41 7 15 -14 22 -15 28 -6 8 13 41 6 41 -8 0 -5 3
-15 6 -24 9 -22 -22 -21 -35 2 -9 15 -12 15 -21 2 -12 -18 -8 -32 11 -39 12
-3 12 -1 -1 14 -13 16 -13 18 0 13 8 -2 15 -11 16 -19 2 -25 21 -64 29 -59 5
3 9 -3 11 -13 2 -15 0 -16 -12 -6 -17 14 -19 12 -28 -23 -3 -16 -2 -28 3 -28
16 0 19 -38 5 -57 -13 -17 -13 -17 -14 0 0 9 -4 17 -10 17 -5 0 -10 8 -11 18
0 9 -3 12 -5 5 -3 -6 2 -25 10 -41 9 -17 15 -46 14 -67 l-1 -36 -23 28 c-13
15 -23 25 -24 20 0 -10 23 -51 35 -59 5 -4 2 -20 -8 -40 -16 -31 -17 -31 -12
-6 3 16 1 28 -4 28 -5 0 -11 6 -14 12 -2 7 -2 2 0 -10 2 -13 0 -21 -6 -18 -5
3 -11 0 -14 -6 -3 -10 -12 -9 -38 4 -19 9 -43 18 -53 20 -11 2 -21 9 -24 17
-3 10 1 12 17 8 18 -4 21 -2 16 11 -3 9 -8 46 -11 82 -3 36 -11 71 -19 80 -8
9 -15 22 -15 28 0 7 -3 12 -6 12 -8 0 -30 -24 -37 -40 -3 -9 -6 -10 -6 -2 -1
6 -5 12 -10 12 -6 0 -3 -16 4 -34 11 -25 12 -37 4 -42 -6 -3 -15 0 -20 7 -5 8
-9 11 -10 7 -1 -5 -3 -12 -4 -18 -1 -5 -3 -16 -4 -22 -1 -9 -6 -7 -15 4 -13
18 -27 15 -22 -5 2 -7 1 -9 -1 -4 -3 4 -9 7 -14 7 -6 0 -7 -5 -3 -11 10 -17
-16 -28 -43 -18 -12 5 -23 5 -23 0 0 -17 43 -19 76 -4 34 16 62 10 34 -7 -16
-10 -4 -30 21 -33 32 -5 78 -30 72 -40 -3 -6 -1 -7 5 -3 7 4 12 3 12 -3 0 -5
-5 -11 -10 -13 -6 -2 5 -21 25 -43 19 -22 33 -45 31 -52 -3 -7 1 -10 10 -6 7
3 14 0 14 -7 0 -6 6 -10 13 -7 6 2 24 1 38 -3 19 -6 26 -4 26 6 0 9 -8 12 -24
8 -18 -5 -23 -2 -24 12 0 11 -3 14 -6 7 -2 -7 -8 -13 -13 -13 -9 0 -38 42 -42
62 -2 7 -11 16 -21 20 -10 4 -15 12 -12 18 8 13 35 13 35 0 0 -6 3 -9 8 -8 4
1 16 -3 28 -9 12 -7 25 -8 35 -2 20 13 29 11 29 -6 0 -8 5 -15 10 -15 6 0 10
-4 10 -9 0 -6 -9 -9 -20 -8 -11 1 -20 4 -20 7 0 3 -9 6 -20 6 -11 0 -20 -4
-20 -8 0 -4 4 -8 9 -8 5 0 17 -7 26 -16 11 -12 19 -13 29 -5 7 6 15 8 18 6 3
-3 11 16 18 42 7 26 23 77 36 113 13 36 27 83 32 105 11 49 6 157 -9 202 -6
18 -9 43 -8 55 1 13 -3 41 -9 63 -12 44 -57 111 -65 98z m-62 -277 c12 -12 12
-16 1 -25 -14 -12 -18 -9 -29 22 -8 20 9 23 28 3z m-115 -127 c0 -10 5 -19 11
-19 5 0 7 5 4 10 -3 6 -1 10 4 10 18 0 12 -36 -9 -55 -10 -9 -25 -15 -33 -12
-10 4 -13 -1 -9 -19 5 -25 32 -55 32 -35 0 6 -4 11 -10 11 -5 0 -10 7 -10 15
0 20 10 19 27 -2 12 -16 13 -15 7 10 -4 17 -2 27 5 27 6 0 11 -11 11 -24 0
-13 3 -32 7 -42 5 -13 3 -16 -10 -11 -11 4 -17 1 -17 -7 0 -22 -37 -7 -57 23
-29 42 -25 60 13 67 19 3 37 10 40 15 3 5 -2 6 -10 3 -15 -6 -18 -1 -18 31 0
30 2 36 12 30 6 -3 10 -15 10 -26z"/>
<path d="M1577 714 c3 -8 9 -11 14 -8 5 3 9 0 9 -6 0 -9 116 -70 145 -76 84
-18 117 -22 155 -19 79 7 160 37 179 68 10 15 5 14 -32 -7 -100 -59 -256 -50
-399 22 -42 22 -74 33 -71 26z"/>
<path d="M421 649 c-28 -22 -51 -45 -51 -50 0 -12 -58 -41 -100 -50 l-35 -7
38 -1 c57 -2 128 39 171 99 20 27 34 50 32 50 -2 0 -26 -18 -55 -41z"/>
<path d="M683 657 c-29 -62 -34 -80 -23 -91 5 -5 10 -8 11 -5 7 39 26 90 34
90 6 0 13 -10 17 -23 6 -22 6 -22 7 4 1 38 -32 56 -46 25z"/>
<path d="M2160 642 c0 -10 38 -52 47 -52 3 0 0 7 -7 15 -7 8 -9 15 -5 15 4 0
2 7 -5 15 -13 16 -30 20 -30 7z"/>
<path d="M1110 613 c-8 -2 -25 -20 -37 -39 -13 -19 -17 -32 -10 -28 6 4 8 3 4
-1 -13 -15 -91 -5 -104 13 -12 14 -13 14 -13 -5 0 -12 5 -25 11 -29 7 -4 1
-16 -16 -32 -15 -14 -34 -40 -41 -59 -11 -24 -23 -35 -44 -39 -16 -4 -37 -16
-47 -28 -18 -21 -18 -21 4 -3 12 10 31 17 44 15 17 -2 27 7 48 47 50 93 153
119 223 56 40 -36 65 -124 43 -157 -8 -12 -23 -25 -34 -29 -19 -6 -19 -36 0
-61 5 -6 5 -15 1 -19 -4 -5 -1 -5 6 -1 9 6 10 11 2 21 -15 18 -1 46 21 43 10
-2 17 2 16 7 -1 6 -6 9 -10 7 -5 -1 -6 2 -2 8 3 6 11 8 16 4 6 -3 13 3 16 15
3 13 14 21 27 21 21 1 21 1 -2 13 -12 7 -19 16 -15 20 4 4 8 14 9 23 2 12 0
13 -13 3 -13 -11 -15 -10 -13 6 4 34 0 46 -10 40 -5 -3 -10 1 -10 9 0 9 7 16
15 16 8 0 15 -4 15 -9 0 -12 109 -126 115 -120 2 3 -21 32 -53 66 -75 79 -82
91 -120 186 -12 27 -14 28 -42 20z m34 -19 c9 -23 7 -46 -3 -40 -4 3 -16 -3
-26 -14 -19 -21 -35 -18 -35 8 0 15 37 60 51 61 4 1 10 -6 13 -15z m26 -74 c0
-4 3 -17 6 -27 6 -15 4 -16 -7 -5 -7 6 -20 12 -30 12 -12 0 -15 6 -11 25 3 21
7 23 23 14 11 -5 19 -14 19 -19z"/>
<path d="M2323 556 c20 -18 37 -38 37 -43 0 -6 9 -18 20 -28 11 -10 20 -24 20
-32 0 -7 5 -13 10 -13 6 0 -4 27 -22 60 -18 33 -38 60 -44 60 -6 0 -17 7 -24
15 -7 8 -17 15 -23 15 -6 0 6 -15 26 -34z"/>
<path d="M892 505 c0 -53 1 -57 10 -32 7 20 7 39 0 60 -9 29 -10 27 -10 -28z"/>
<path d="M2380 557 c0 -12 92 -197 101 -203 4 -2 -10 35 -33 83 -39 85 -68
135 -68 120z"/>
<path d="M1995 543 c-11 -3 -22 -8 -25 -12 -9 -12 -125 -65 -137 -63 -6 1 -14
-2 -17 -7 -12 -18 52 -2 111 28 51 26 107 62 93 60 -3 -1 -14 -4 -25 -6z"/>
<path d="M2543 458 c3 -7 28 -66 56 -131 28 -65 51 -121 51 -126 0 -5 7 -11
15 -15 8 -3 15 -10 15 -16 0 -6 -4 -9 -9 -5 -6 3 -6 -5 -1 -22 15 -52 31 -86
36 -80 3 3 0 16 -7 28 -6 13 -13 39 -15 59 -4 48 -26 122 -41 138 -6 7 -30 50
-53 97 -23 47 -44 85 -47 85 -3 0 -3 -6 0 -12z"/>
<path d="M2713 423 c82 -74 101 -85 28 -16 -36 35 -69 63 -73 63 -4 0 16 -21
45 -47z"/>
<path d="M2885 404 c4 -10 10 -50 13 -89 2 -38 8 -74 12 -80 4 -5 10 -22 14
-37 4 -19 11 -26 21 -22 8 4 15 4 15 1 0 -2 7 -21 16 -42 8 -20 11 -34 5 -31
-5 3 -11 0 -14 -6 -2 -7 -11 2 -21 20 -23 44 -30 41 -10 -5 9 -21 17 -46 18
-55 0 -9 4 -14 8 -12 4 3 8 1 8 -3 0 -5 7 -18 15 -29 12 -14 11 -10 -2 19 -17
37 -17 39 0 48 18 11 23 38 9 54 -21 25 -65 162 -64 199 1 27 -1 36 -7 27 -7
-10 -11 -5 -16 18 -3 17 -11 34 -17 38 -8 4 -9 0 -3 -13z"/>
<path d="M1879 390 c-20 -3 -46 -6 -58 -5 -14 1 -20 -3 -17 -10 2 -7 -6 -18
-19 -25 -33 -18 -43 -44 -14 -37 16 4 19 3 10 -6 -17 -17 -13 -31 5 -16 8 7
13 21 11 30 -6 21 11 29 59 29 35 0 119 29 109 38 -8 8 -47 9 -86 2z"/>
<path d="M2454 318 c53 -140 68 -175 93 -223 32 -61 61 -95 82 -95 11 0 12 3
4 8 -28 18 -123 192 -123 226 0 9 -4 16 -9 16 -5 0 -19 27 -31 60 -12 33 -26
63 -31 66 -5 2 2 -23 15 -58z"/>
<path d="M634 354 c3 -9 6 -17 6 -20 0 -11 84 -44 99 -39 23 7 43 -16 31 -35
-6 -8 -10 -31 -10 -50 0 -24 3 -31 9 -21 6 10 14 -3 25 -44 10 -31 19 -55 21
-53 3 2 1 18 -4 35 -5 17 -12 65 -16 105 -6 58 -10 74 -23 75 -22 2 -40 7 -77
22 -21 9 -26 14 -16 20 9 6 6 10 -11 14 -35 10 -41 8 -34 -9z"/>
<path d="M1896 320 c-21 -16 -43 -31 -49 -33 -6 -2 -7 -11 -3 -23 8 -18 8 -18
17 4 5 13 13 21 18 18 5 -4 19 6 30 20 12 15 27 24 35 21 10 -4 13 -1 9 9 -7
19 -12 18 -57 -16z"/>
<path d="M2698 320 c-3 -19 -2 -39 2 -45 4 -5 10 -30 14 -55 l6 -45 -14 35
-14 35 3 -56 c1 -31 10 -67 18 -80 9 -13 19 -43 23 -66 6 -37 10 -43 31 -43
22 0 23 2 9 15 -23 23 -37 80 -42 165 l-3 75 19 -25 c11 -14 20 -20 20 -14 0
6 -11 21 -25 34 -14 13 -25 33 -26 44 0 12 -4 30 -8 41 -7 17 -9 14 -13 -15z"/>
<path d="M1340 326 c0 -9 -4 -16 -10 -16 -5 0 -10 -5 -10 -12 0 -9 3 -9 12 0
15 15 31 16 22 0 -5 -7 -3 -8 6 -3 10 6 12 3 8 -13 -6 -23 6 -30 16 -9 3 6 3
2 0 -10 -3 -13 -1 -23 5 -23 6 0 11 -5 11 -10 0 -7 -6 -7 -19 0 -29 15 -38 12
-15 -4 10 -8 19 -20 19 -28 0 -7 16 -18 35 -25 19 -7 30 -12 24 -12 -5 -1 -20
-10 -33 -22 -18 -17 -20 -24 -10 -35 10 -12 16 -10 38 17 24 28 28 30 40 15 7
-9 20 -16 27 -16 20 0 19 -89 -1 -96 -8 -4 -12 -10 -9 -16 3 -5 11 -5 19 2 7
6 17 10 21 9 41 -7 43 0 18 58 -20 44 -22 58 -12 65 16 11 172 8 190 -3 10 -7
9 -9 -5 -9 -10 0 -15 -5 -12 -10 4 -6 11 -8 16 -5 8 6 7 -5 -8 -42 -9 -26 -10
-62 -1 -57 4 3 8 0 8 -7 0 -7 3 -10 6 -7 3 4 1 15 -5 26 -18 33 26 101 45 70
4 -7 3 -8 -4 -4 -7 4 -12 2 -12 -3 0 -12 45 -13 74 -2 19 7 19 8 -2 13 -12 4
-22 2 -22 -3 0 -5 -4 -9 -10 -9 -14 0 -12 27 3 33 6 3 -1 4 -18 4 -25 -2 -29
1 -27 18 6 29 12 32 27 11 13 -18 14 -17 20 7 4 14 5 34 2 44 -4 14 -5 14 -6
-4 -1 -14 -7 -23 -17 -23 -13 0 -15 6 -10 28 5 20 4 23 -4 12 -5 -8 -10 -11
-10 -6 0 5 7 18 17 28 10 11 12 18 4 18 -16 0 -86 -36 -104 -54 -23 -24 -161
-29 -219 -9 -34 12 -48 22 -48 36 0 24 -14 50 -45 83 -19 20 -25 23 -25 10z
m414 -158 c-11 -17 -34 -7 -34 15 1 21 1 22 15 3 16 -21 21 -11 7 12 -12 18
-40 4 -44 -21 -3 -22 -3 -22 -10 1 -5 19 0 27 25 43 l32 19 7 -32 c3 -18 4
-36 2 -40z"/>
<path d="M2531 258 c51 -102 51 -103 44 -48 -8 56 -26 95 -36 79 -4 -8 -13 -1
-23 20 -9 17 -19 31 -21 31 -3 0 13 -37 36 -82z"/>
<path d="M2075 317 c-9 -21 11 -48 30 -40 19 7 45 -20 45 -47 l0 -21 -29 20
c-23 17 -30 18 -34 7 -3 -8 2 -16 14 -19 14 -4 19 -14 19 -37 0 -29 2 -31 16
-19 10 8 12 15 5 17 -17 6 -13 22 7 22 13 0 17 9 18 43 1 47 -10 59 -43 51
-18 -5 -25 -1 -32 17 -8 21 -10 22 -16 6z"/>
<path d="M1240 280 c-6 -11 -14 -18 -18 -16 -5 3 -8 -4 -9 -14 -1 -11 4 -23
10 -26 7 -4 9 -4 5 1 -12 12 12 48 25 38 7 -5 26 -10 42 -11 30 -2 30 -2 -5
11 -19 7 -34 18 -32 25 3 19 -6 14 -18 -8z"/>
<path d="M1067 273 c-4 -3 -7 -17 -7 -30 0 -18 5 -22 24 -21 14 1 22 6 20 10
-3 4 -11 5 -19 2 -14 -6 -15 12 -2 34 8 12 -5 17 -16 5z"/>
<path d="M1822 171 c-1 -36 2 -51 12 -51 9 0 12 12 9 43 -6 61 -20 67 -21 8z"/>
<path d="M2580 217 c0 -4 9 -25 20 -47 24 -48 25 -57 3 -39 -15 13 -15 12 -2
-8 7 -12 16 -18 19 -13 4 6 16 -14 29 -44 12 -30 29 -57 37 -60 19 -7 18 4 -3
20 -17 13 -17 13 2 14 20 1 20 1 -1 18 -12 10 -40 51 -62 92 -23 41 -42 71
-42 67z"/>
<path d="M1082 181 c-10 -6 -6 -10 15 -16 26 -7 26 -8 8 -15 -15 -6 -16 -9 -4
-9 23 -1 30 9 18 30 -11 21 -18 23 -37 10z"/>
<path d="M1333 158 c-15 -20 -24 -50 -13 -43 15 9 12 -5 -5 -22 -8 -8 -12 -19
-9 -25 4 -7 0 -7 -12 0 -17 9 -19 6 -19 -29 0 -38 8 -49 20 -30 3 5 36 8 74 6
71 -4 111 2 111 15 0 9 -52 6 -68 -3 -5 -4 -21 -3 -35 2 -14 5 -35 7 -48 4
-19 -5 -21 -3 -14 13 4 10 8 25 8 31 0 7 9 15 19 19 10 3 18 11 18 17 0 7 3
22 6 35 7 25 -16 32 -33 10z"/>
<path d="M1860 161 c0 -5 9 -11 21 -14 17 -5 19 -9 9 -26 -8 -16 -8 -22 2 -25
39 -13 40 -14 11 -15 -29 -1 -33 2 -34 27 -2 25 -2 25 -6 3 -6 -32 11 -46 51
-43 19 2 37 -1 41 -7 3 -6 12 -11 18 -11 16 1 -44 50 -60 50 -15 0 -17 26 -3
35 6 3 10 0 10 -7 0 -9 3 -9 10 2 10 16 2 23 -42 34 -16 3 -28 2 -28 -3z"/>
<path d="M437 133 c-4 -3 -7 -20 -7 -36 0 -36 7 -32 20 12 8 29 2 40 -13 24z"/>
<path d="M1027 133 c-16 -4 -15 -7 8 -19 16 -8 30 -13 32 -11 5 6 -8 37 -16
36 -3 -1 -14 -3 -24 -6z"/>
<path d="M1667 133 c-2 -5 -3 -15 -2 -23 0 -8 -2 -17 -6 -20 -10 -7 -13 -53
-4 -72 4 -10 16 -18 27 -18 16 0 18 4 11 23 -4 12 -8 43 -8 70 0 42 -8 60 -18
40z"/>
<path d="M1261 102 c-6 -12 -11 -28 -11 -36 0 -9 -5 -16 -11 -16 -6 0 -8 -7
-5 -16 6 -15 4 -15 -11 -3 -16 13 -17 12 -4 -3 7 -10 16 -18 20 -18 10 0 31
52 25 62 -3 5 0 16 7 24 6 8 9 17 6 20 -3 3 -10 -3 -16 -14z"/>
<path d="M2776 91 c14 -54 36 -95 44 -82 6 11 9 11 13 0 3 -9 6 -6 6 7 1 11
-3 24 -8 30 -5 5 -11 23 -14 39 -3 26 -4 25 -6 -10 l-2 -40 -20 40 c-10 22
-16 29 -13 16z"/>
<path d="M1142 84 c-10 -12 -10 -14 3 -14 8 0 15 -4 15 -9 0 -5 9 -11 21 -14
16 -4 18 -3 9 8 -7 8 -8 20 -4 26 5 8 3 9 -6 4 -7 -4 -15 -3 -19 3 -4 6 -11 5
-19 -4z"/>
<path d="M1595 87 c-37 -42 -22 -51 22 -12 25 22 26 24 8 24 -11 0 -25 -5 -30
-12z"/>
<path d="M1063 77 c-18 -6 -33 -14 -33 -19 0 -5 9 -4 19 2 27 14 51 13 51 -2
0 -8 -16 -14 -38 -15 -20 -2 -48 -9 -61 -15 -19 -10 -25 -10 -28 -1 -3 7 -12
13 -21 12 -11 0 -12 -2 -4 -6 6 -2 12 -10 12 -17 0 -15 49 -13 59 3 7 11 70 9
112 -4 13 -5 15 0 11 22 -4 19 -7 23 -10 11 -6 -28 -25 -21 -20 6 6 30 -6 36
-49 23z"/>
<path d="M883 73 c-7 -2 -13 -13 -13 -24 0 -18 -25 -27 -32 -11 -1 4 -14 3
-27 -4 -23 -12 -22 -13 20 -21 44 -10 70 -6 51 6 -7 4 -7 12 -3 20 11 18 31 5
31 -20 0 -10 5 -19 10 -19 6 0 10 11 10 24 0 16 -7 26 -21 29 -12 3 -18 10
-14 16 7 12 6 12 -12 4z"/>
<path d="M925 72 c35 -15 84 -22 90 -12 3 6 -5 10 -18 10 -14 0 -40 2 -58 5
-25 4 -29 3 -14 -3z"/>
<path d="M1793 50 c-13 -15 -21 -17 -37 -8 l-21 10 21 -20 c28 -27 66 -39 58
-18 -3 9 -10 16 -16 16 -5 0 -6 5 -2 11 3 6 19 9 35 7 31 -5 31 7 -2 15 -13 4
-26 -1 -36 -13z"/>
<path d="M1870 35 c-10 -12 -10 -19 -2 -27 11 -11 17 -1 13 24 0 4 7 4 16 1
11 -4 14 -3 9 5 -10 16 -21 15 -36 -3z"/>
<path d="M1925 40 c-3 -5 -3 -11 2 -12 4 0 13 -2 18 -3 6 -2 16 -3 23 -4 7 0
10 -5 7 -11 -3 -5 -2 -10 3 -10 11 0 25 30 17 38 -3 3 -5 0 -5 -7 0 -10 -6 -9
-25 3 -29 19 -32 19 -40 6z"/>
<path d="M580 9 c0 -9 118 -11 123 -2 3 4 -24 8 -59 8 -35 0 -64 -3 -64 -6z"/>
</g>
</svg>
